<svg xmlns="http://www.w3.org/2000/svg" version="1.1" xmlns:xlink="http://www.w3.org/1999/xlink" xmlns:svgjs="http://svgjs.dev/svgjs" width="308.7612359841165"
   height="304.915625" viewBox="0 0 1500 1500"><g transform="matrix(1,0,0,1,-0.21332335329316265,-0.21332335329350371)"><svg viewBox="0 0 334 334" data-background-color="#efefef" preserveAspectRatio="xMidYMid meet" height="1500" width="1500" xmlns="http://www.w3.org/2000/svg" xmlns:xlink="http://www.w3.org/1999/xlink"><g id="tight-bounds" transform="matrix(1,0,0,1,0.04749999999998522,0.04750000000001364)"><svg viewBox="0 0 333.90454557049503 333.90454557049503" height="333.90454557049503" width="333.90454557049503"><g><svg></svg></g><g><svg viewBox="0 0 333.90454557049503 333.90454557049503" height="333.90454557049503" width="333.90454557049503"><g><path d="M0 166.952c0-92.205 74.747-166.952 166.952-166.952 92.205 0 166.952 74.747 166.953 166.952 0 92.205-74.747 166.952-166.953 166.953-92.205 0-166.952-74.747-166.952-166.953zM166.952 316.63c82.665 0 149.677-67.013 149.678-149.678 0-82.665-67.013-149.677-149.678-149.677-82.665 0-149.677 67.013-149.677 149.677 0 82.665 67.013 149.677 149.677 149.678z" data-fill-palette-color="tertiary" fill="#d94e28" stroke="transparent"></path><ellipse rx="160.27418187383762" ry="160.27418187383762" cx="166.95227278524752" cy="166.95227278524752" fill="#d94e28" stroke="transparent" stroke-width="0" fill-opacity="1" data-fill-palette-color="tertiary"></ellipse></g><g transform="matrix(1,0,0,1,82.09524399602441,71.17305217166896)"><svg viewBox="0 0 169.71405757844622 191.55844122715712" height="191.55844122715712" width="169.71405757844622"><g><svg viewBox="0 0 169.71405757844622 191.55844122715712" height="191.55844122715712" width="169.71405757844622"><g><svg viewBox="0 0 169.71405757844622 191.55844122715712" height="191.55844122715712" width="169.71405757844622"><g><svg viewBox="0 0 169.71405757844622 191.55844122715712" height="191.55844122715712" width="169.71405757844622"><g id="textblocktransform"><svg viewBox="0 0 169.71405757844622 191.55844122715712" height="191.55844122715712" width="169.71405757844622" id="textblock"><g><svg viewBox="0 0 169.71405757844622 191.55844122715712" height="191.55844122715712" width="169.71405757844622"><g transform="matrix(1,0,0,1,0,0)"><svg width="169.71405757844622" viewBox="3.4 -34.2 30.300000000000004 34.2" height="191.55844122715712" data-palette-color="#efefef"><path d="M14.95-27.25L14.95-6.8Q16.25-6.8 17.23-7.08 18.2-7.35 19.07-8.08 19.95-8.8 20.5-10 21.05-11.2 21.38-13.08 21.7-14.95 21.7-17.5L21.7-17.5Q21.7-20.35 21.2-22.33 20.7-24.3 19.75-25.33 18.8-26.35 17.68-26.78 16.55-27.2 14.95-27.25L14.95-27.25ZM9.1-34.2L16.45-34.2Q24.25-34.2 28.98-29.7 33.7-25.2 33.7-17.3L33.7-17.3Q33.7-14.75 33.23-12.35 32.75-9.95 31.65-7.68 30.55-5.4 28.9-3.73 27.25-2.05 24.7-1.03 22.15 0 18.95 0L18.95 0 9.1 0Q6.05 0 4.73-1.55 3.4-3.1 3.4-7.15L3.4-7.15 3.4-28.25Q3.4-34.2 9.1-34.2L9.1-34.2Z" opacity="1" transform="matrix(1,0,0,1,0,0)" fill="#efefef" class="wordmark-text-0" data-fill-palette-color="quaternary" id="text-0"></path></svg></g></svg></g></svg></g></svg></g><g></g></svg></g></svg></g></svg></g></svg></g><defs></defs></svg><rect width="333.90454557049503" height="333.90454557049503" fill="none" stroke="none" visibility="hidden"></rect></g></svg></g></svg>